<?xml version="1.0" encoding="utf-8"?>
<!-- Generator: Adobe Illustrator 28.1.0, SVG Export Plug-In . SVG Version: 6.00 Build 0)  -->
<svg version="1.1" id="Layer_1" xmlns="http://www.w3.org/2000/svg" xmlns:xlink="http://www.w3.org/1999/xlink" x="0px" y="0px"
	 viewBox="0 0 85.04 85.04" style="enable-background:new 0 0 85.04 85.04;" xml:space="preserve">
<style type="text/css">
	.st0{fill:#FFFFFF;}
	.st1{fill:#F1E81A;}
	.st2{fill:#EF3F2F;}
	.st3{clip-path:url(#SVGID_00000055678467546770543610000018376690553608671910_);}
</style>
<rect x="0.52" y="0.22" class="st0" width="83.9" height="83.9"/>
<path class="st1" d="M84.42,0.22H0.52v83.9h83.9V0.22z M78.84,35.1c-0.14,2.62-0.97,5.87-1.7,8.05c-2.95,8.77-6.37,14.2-14.29,14.2
	c-2.33,0-6.47-0.62-7.99-4.77l-0.36-0.99l-0.65,0.82c-2.48,3.14-6.16,4.95-10.1,4.97c-3.02,0.01-5.45-1-7.02-2.93l-0.43-0.53
	l-0.46,0.51c-1.68,1.85-4.6,2.92-8.02,2.92c-2.68,0-5-0.91-6.53-2.57l-0.42-0.45l-0.43,0.44c-1.7,1.71-4.37,2.57-7.72,2.5
	c-4.07-0.1-6.56-2.37-6.63-6.08c-0.12-5.72,5.42-17.77,7.71-21.43c1.49-2.45,3.54-3.63,6.26-3.63c1.86,0,3.12,0.39,3.88,1.19
	c0.69,0.73,0.82,1.34,0.88,2.81l0.08,1.91l1.01-1.62c2.43-3.92,6.47-4.46,10.46-4.46c2.78,0,5.2,1.02,6.17,2.6l0.36,0.58l0.52-0.44
	c2.06-1.75,4.96-2.72,8.18-2.72c3.51,0,6.06,0.87,7.58,2.59c0.35,0.39,0.57,0.66,0.89,1.33l0.39,0.82l0.59-0.69
	c2.23-2.63,5.27-3.97,9.04-3.97c2.99,0,5.26,0.8,6.74,2.36C78.68,30.36,78.94,33.12,78.84,35.1z"/>
<path class="st2" d="M84.42,0.22H0.52v83.9h83.9V0.22z M81.2,38.31c-0.38,3.05-2.44,8.71-3.54,10.97C74.72,55.35,70.79,60,63.22,60
	c-4.05,0-7.37-1.29-9.32-3.77c-2.85,2.49-6.38,3.8-10.17,3.8c-2.93,0-5.51-0.84-7.48-2.41c-2.18,1.53-5.11,2.39-8.37,2.39
	c-2.72,0-5.17-0.75-7.08-2.13c-2.12,1.41-4.89,2.11-8.15,2.03c-5.42-0.13-9.16-3.56-9.27-8.55C3.24,44.73,8.82,32.6,11.45,28.4
	c1.97-3.24,4.97-4.98,8.66-4.98c4,0,5.45,1.14,6.16,2.6c3.08-2.62,7.17-2.77,10.08-2.77c3.21,0,5.23,0.86,6.94,2.22
	c2.37-1.42,5.08-2.16,8.32-2.16c4.14,0,7.21,0.96,9.35,3.08c2.5-2.08,5.63-3.03,9.14-3.03c4.63,0,7.68,1.67,9.48,4.17
	C82.12,31.03,81.67,34.57,81.2,38.31z"/>
<g>
	<defs>
		<rect id="SVGID_1_" x="0.06" width="84.98" height="85.04"/>
	</defs>
	<clipPath id="SVGID_00000163054612486289554710000008707621066641833653_">
		<use xlink:href="#SVGID_1_"  style="overflow:visible;"/>
	</clipPath>
	<path style="clip-path:url(#SVGID_00000163054612486289554710000008707621066641833653_);" d="M85.04,0H0v85.04h85.04V0z
		 M1.17,1.17h82.7v82.7H1.17V1.17z"/>
</g>
<path d="M80.79,25.17v-0.58h0.39c0.29,0,0.43,0.1,0.43,0.29c0,0.15-0.09,0.29-0.39,0.29H80.79 M82.2,26.37l-0.24-0.42
	c-0.21-0.37-0.27-0.43-0.45-0.49v-0.01c0.36-0.04,0.57-0.27,0.57-0.59c0-0.34-0.21-0.59-0.67-0.59h-1.05v2.11h0.44V25.5h0.08
	c0.19,0,0.26,0.02,0.35,0.11c0.09,0.08,0.21,0.26,0.29,0.42l0.17,0.34H82.2z M81.16,23.67c0.91,0,1.64,0.73,1.64,1.64
	c0,0.9-0.74,1.64-1.64,1.64c-0.9,0-1.63-0.74-1.63-1.64C79.53,24.4,80.26,23.67,81.16,23.67z M81.16,23.27
	c-1.12,0-2.03,0.91-2.03,2.04c0,1.13,0.91,2.03,2.03,2.03c1.13,0,2.04-0.91,2.04-2.03C83.2,24.18,82.29,23.27,81.16,23.27z"/>
<path d="M70.07,25.45c-4.39,0-7.43,1.74-9.49,4.18c-0.35-0.73-0.61-1.05-0.98-1.47c-1.68-1.9-4.39-2.79-8.02-2.79
	c-3.55,0-6.5,1.11-8.56,2.85c-1.07-1.73-3.61-2.88-6.67-2.88c-4,0-8.37,0.57-10.96,4.74c-0.06-1.5-0.2-2.3-1.04-3.19
	c-1.03-1.09-2.69-1.37-4.31-1.37c-2.95,0-5.16,1.29-6.76,3.91c-2.32,3.7-7.93,15.87-7.8,21.76c0.08,3.81,2.64,6.55,7.21,6.66
	c3.57,0.08,6.37-0.87,8.15-2.67c1.6,1.74,4.04,2.76,6.96,2.76c3.25,0,6.52-0.98,8.45-3.11c1.63,2,4.19,3.16,7.48,3.15
	c4.3-0.02,8.08-2.06,10.55-5.19c1.36,3.69,4.79,5.15,8.55,5.15c8.23,0,11.84-5.66,14.85-14.6c0.68-2.01,1.58-5.38,1.73-8.2
	C79.67,30.43,77.69,25.45,70.07,25.45 M15.34,47.94c4.25-0.74,5.33,0.8,5.19,2.22c-0.4,4.26-4.32,5.22-7.71,5.14
	c-2.46-0.06-4.68-1.19-4.74-4.05c-0.11-5.01,5-16.58,7.4-20.42c1.11-1.82,2.46-2.72,4.62-2.72c2.04,0,2.55,1.05,2.52,2.3
	C22.54,33.76,17.12,43.96,15.34,47.94z M29.2,44.01c-0.28,0.76-0.82,2.36-1.25,4.05c1.4-0.35,2.44-0.59,4.24-0.55
	c2.04,0.05,3.35,0.9,3.35,2.59c0,4.1-4.53,5.3-7.67,5.3c-3.45,0-6.48-1.97-6.48-5.74c0-4.42,2.4-11.13,4.65-15.6
	c2.76-5.49,5.59-6.22,10.45-6.22c2.14,0,4.6,0.91,4.6,2.93c0,2.8-2.37,3.87-4.72,4c-1,0.06-2.55,0.11-3.47,0.05
	c0,0-0.78,1.19-1.61,3.31c4.35-0.61,6.2,0.37,5.46,2.89C35.76,44.43,32.81,44.65,29.2,44.01z M50.6,33.43
	c-1.18,0-1.95,0.75-2.52,1.55c-1.26,1.77-3.99,8.87-4.42,11.78c-0.29,2,0.57,2.41,1.51,2.41c1.51,0,3.21-1.6,3.78-4.24
	c0,0-2.88-0.07-2.08-2.62c0.77-2.48,2.23-3.01,4.66-3.11c4.78-0.2,4.31,3.33,3.92,5.21c-1.24,6.11-5.59,11.01-11.74,11.01
	c-4.21,0-6.82-2.33-6.82-6.62c0-3.06,1.52-7.86,2.72-10.67c2.56-5.98,5.24-10.17,12.09-10.17c4.1,0,7.34,1.47,6.87,5.32
	c-0.35,2.82-1.76,4.48-4.33,4.68c-0.72,0.06-3.65-0.02-2.68-2.79C51.91,34.19,52.05,33.43,50.6,33.43z M76.44,38.48
	c-0.72,3.6-2.35,7.86-4.12,11.03c-2.88,5.18-6.38,5.9-9.43,5.87c-3.05-0.04-6.5-1.17-6.52-5.88c-0.02-3.38,1.44-8.16,2.68-11.29
	c2.16-5.67,4.37-10.3,11.34-10.22C78.52,28.09,77.07,35.33,76.44,38.48z M70.64,34.93c-0.09,2.17-3.27,10.86-4.4,12.78
	c-0.49,0.83-1.04,1.52-2.04,1.52c-0.87,0-1.26-0.62-1.28-1.32c-0.06-1.96,3.53-11.79,4.77-13.39c0.55-0.84,1.16-0.98,1.85-0.97
	C70.56,33.56,70.66,34.29,70.64,34.93z"/>
</svg>
