<?xml version="1.0" encoding="UTF-8" standalone="no"?>
<!-- Created with Inkscape (http://www.inkscape.org/) -->

<svg
   width="210mm"
   height="297mm"
   viewBox="0 0 210 297"
   version="1.1"
   id="svg1"
   xml:space="preserve"
   inkscape:version="1.3 (0e150ed6c4, 2023-07-21)"
   sodipodi:docname="shell_logo_3.svg"
   xmlns:inkscape="http://www.inkscape.org/namespaces/inkscape"
   xmlns:sodipodi="http://sodipodi.sourceforge.net/DTD/sodipodi-0.dtd"
   xmlns="http://www.w3.org/2000/svg"
   xmlns:svg="http://www.w3.org/2000/svg"><sodipodi:namedview
     id="namedview1"
     pagecolor="#ffffff"
     bordercolor="#000000"
     borderopacity="0.25"
     inkscape:showpageshadow="2"
     inkscape:pageopacity="0.0"
     inkscape:pagecheckerboard="0"
     inkscape:deskcolor="#d1d1d1"
     inkscape:document-units="mm"
     showguides="true"
     inkscape:zoom="0.78315981"
     inkscape:cx="178.763"
     inkscape:cy="674.1919"
     inkscape:window-width="1920"
     inkscape:window-height="992"
     inkscape:window-x="-8"
     inkscape:window-y="-8"
     inkscape:window-maximized="1"
     inkscape:current-layer="layer1" /><defs
     id="defs1"><inkscape:path-effect
       effect="fillet_chamfer"
       id="path-effect7"
       is_visible="true"
       lpeversion="1"
       nodesatellites_param="F,0,0,1,0,0,0,1 @ F,0,0,1,0,0,0,1 @ F,0,0,1,0,0,0,1 @ F,0,0,1,0,0,0,1 @ F,0,0,1,0,0,0,1 @ F,0,0,1,0,0,0,1 @ F,0,0,1,0,0,0,1"
       radius="0"
       unit="px"
       method="auto"
       mode="F"
       chamfer_steps="1"
       flexible="false"
       use_knot_distance="true"
       apply_no_radius="true"
       apply_with_radius="true"
       only_selected="false"
       hide_knots="false" /></defs><g
     inkscape:label="Layer 1"
     inkscape:groupmode="layer"
     id="layer1"><g
       id="g45"><path
         style="fill:#ffff00;fill-opacity:1;stroke:none;stroke-width:0.767292;stroke-linecap:round;stroke-linejoin:round;stroke-opacity:1"
         d="m 54.730207,206.75856 74.662813,-0.67568 5.40546,-25.6759 20.60829,-15.20283 -6.41898,-39.86522 -33.78408,-27.027259 -38.51385,-2.027045 -28.716467,15.202834 -14.527154,30.06783 -1.689204,25.33806 22.635333,17.22988 z"
         id="path45" /><path
         id="path21"
         style="fill:#ff0000;fill-opacity:1;stroke:none;stroke-width:0.767292;stroke-linecap:round;stroke-linejoin:round;stroke-opacity:1"
         d="M 93.673869 88.816801 C 84.671277 88.858887 74.761426 90.917013 64.25706 96.246838 C 42.595852 107.23755 20.037333 131.26051 25.731246 171.7921 L 46.35376 186.13179 L 50.326644 213.22678 L 88.355847 214.17297 C 93.098129 217.98667 97.205812 216.15122 99.665751 214.17297 L 137.69495 213.22678 L 141.66784 186.13179 L 162.29035 171.7921 C 168.03053 130.93126 145.05693 106.84851 123.23641 95.981738 C 115.32383 92.04122 105.24863 88.76269 93.673869 88.816801 z M 89.461206 103.9027 L 93.203097 171.53475 C 93.47161 171.52469 93.740132 171.51511 94.010799 171.51511 C 94.281462 171.51511 94.549993 171.52469 94.818502 171.53475 L 98.560392 103.9027 C 105.93898 103.96483 110.21248 105.64704 113.7052 107.73658 L 100.01767 172.37604 C 100.50039 172.51674 100.9765 172.67511 101.44704 172.84836 L 121.37295 111.12345 C 126.38666 113.5078 130.65107 116.79099 133.96133 121.21947 L 106.87668 175.74379 C 107.31055 176.05563 107.73597 176.38129 108.1505 176.72306 L 139.39459 128.34772 C 143.08867 132.67231 144.88872 137.19626 145.90996 141.8022 L 111.70843 180.31561 C 112.05454 180.74091 112.3894 181.17752 112.71147 181.62716 L 147.6623 150.66212 C 148.58564 154.86709 148.76403 159.23105 148.13359 163.43602 L 126.82895 178.21134 L 124.04101 198.88708 L 97.696362 198.88708 C 95.562245 201.59504 92.459455 201.59517 90.325236 198.88708 L 63.980591 198.88708 L 61.192647 178.21134 L 39.888005 163.43602 C 39.257566 159.23105 39.435959 154.86709 40.359294 150.66212 L 75.308582 181.62561 C 75.630509 181.17617 75.967733 180.74124 76.313688 180.31613 L 42.111641 141.8022 C 43.132881 137.19626 44.932931 132.67231 48.627006 128.34772 L 79.872644 176.72513 C 80.287202 176.38334 80.709993 176.05358 81.143884 175.74173 L 54.060266 121.21947 C 57.370529 116.79099 61.634931 113.5078 66.648645 111.12345 L 86.574561 172.84681 C 87.044943 172.67363 87.521887 172.51773 88.004447 172.37708 L 74.316394 107.73658 C 77.809123 105.64704 82.082609 103.9648 89.461206 103.9027 z " /></g></g></svg>
