<?xml version="1.0" encoding="UTF-8" standalone="no"?>
<!-- Created with Inkscape (http://www.inkscape.org/) -->

<svg
   width="210mm"
   height="297mm"
   viewBox="0 0 210 297"
   version="1.1"
   id="svg1"
   xml:space="preserve"
   inkscape:version="1.3 (0e150ed6c4, 2023-07-21)"
   sodipodi:docname="shell_logo_2.svg"
   xmlns:inkscape="http://www.inkscape.org/namespaces/inkscape"
   xmlns:sodipodi="http://sodipodi.sourceforge.net/DTD/sodipodi-0.dtd"
   xmlns="http://www.w3.org/2000/svg"
   xmlns:svg="http://www.w3.org/2000/svg"><sodipodi:namedview
     id="namedview1"
     pagecolor="#ffffff"
     bordercolor="#000000"
     borderopacity="0.25"
     inkscape:showpageshadow="2"
     inkscape:pageopacity="0.0"
     inkscape:pagecheckerboard="0"
     inkscape:deskcolor="#d1d1d1"
     inkscape:document-units="mm"
     showguides="true"
     inkscape:zoom="0.95157204"
     inkscape:cx="401.44097"
     inkscape:cy="606.36502"
     inkscape:window-width="1920"
     inkscape:window-height="992"
     inkscape:window-x="-8"
     inkscape:window-y="-8"
     inkscape:window-maximized="1"
     inkscape:current-layer="layer1"><sodipodi:guide
       position="94.010799,253.06531"
       orientation="1,0"
       id="guide1"
       inkscape:locked="false" /><sodipodi:guide
       position="148.33864,98.112835"
       orientation="0,-1"
       id="guide2"
       inkscape:locked="false" /><sodipodi:guide
       position="197.94233,110.86807"
       orientation="0,-1"
       id="guide3"
       inkscape:locked="false" /><sodipodi:guide
       position="87.571502,125.68294"
       orientation="1,0"
       id="guide4"
       inkscape:locked="false" /><sodipodi:guide
       position="134.11371,201.05388"
       orientation="0,-1"
       id="guide32"
       inkscape:locked="false" /></sodipodi:namedview><defs
     id="defs1"><inkscape:path-effect
       effect="fillet_chamfer"
       id="path-effect7"
       is_visible="true"
       lpeversion="1"
       nodesatellites_param="F,0,0,1,0,0,0,1 @ F,0,0,1,0,0,0,1 @ F,0,0,1,0,0,0,1 @ F,0,0,1,0,0,0,1 @ F,0,0,1,0,0,0,1 @ F,0,0,1,0,0,0,1 @ F,0,0,1,0,0,0,1"
       radius="0"
       unit="px"
       method="auto"
       mode="F"
       chamfer_steps="1"
       flexible="false"
       use_knot_distance="true"
       apply_no_radius="true"
       apply_with_radius="true"
       only_selected="false"
       hide_knots="false" /></defs><g
     inkscape:label="Layer 1"
     inkscape:groupmode="layer"
     id="layer1"><path
       style="fill:none;stroke:#000000;stroke-width:0.767292;stroke-linecap:round;stroke-linejoin:round"
       d="m 117.4596,192.54589 c -2.51843,-12.05962 -12.06122,-21.031 -23.448804,-21.031 -11.542992,0 -21.190498,9.21792 -23.547981,21.52645 z"
       id="path32" /><path
       id="path21"
       style="fill:#000000;fill-opacity:1;stroke:#000000;stroke-width:0.767292;stroke-linecap:round;stroke-linejoin:round;stroke-opacity:1"
       d="m 89.461013,103.90258 c -7.378604,0.0621 -11.65174,1.7445 -15.144472,3.83404 l 16.703215,78.88107 -24.371301,-75.49433 c -5.013719,2.38435 -9.278177,5.66782 -12.588443,10.09631 L 87.495635,188.52765 48.6269,128.34747 c -3.694079,4.32459 -5.494128,8.84856 -6.515369,13.4545 l 43.364874,48.83204 -45.117089,-39.97175 c -0.923336,4.20497 -1.101584,8.56884 -0.471145,12.77381 l 21.304524,14.77546 2.787822,20.67563 26.344919,1e-5 c 2.134221,2.70809 5.236604,2.70796 7.370723,0 l 26.344911,-1e-5 2.78783,-20.67563 21.30452,-14.77546 c 0.63044,-4.20497 0.45219,-8.56884 -0.47115,-12.77381 l -45.11708,39.97175 43.36487,-48.83204 c -1.02124,-4.60594 -2.82129,-9.12991 -6.51537,-13.4545 l -38.86873,60.18018 33.43562,-67.30798 c -3.31027,-4.42849 -7.57473,-7.71196 -12.58844,-10.09631 l -24.371301,75.49433 16.703211,-78.88107 c -3.49273,-2.08954 -7.76587,-3.77191 -15.144468,-3.83404 l -4.549785,82.22935 z M 88.355735,214.17279 50.326821,213.2268 46.353651,186.13193 25.731006,171.79231 c -5.693919,-40.53163 16.865015,-64.55474 38.526244,-75.54546 24.010005,-12.18247 44.91257,-7.270643 58.97939,-0.265271 21.82055,10.866781 44.79412,34.949851 39.05394,75.810731 l -20.62264,14.33962 -3.97317,27.09487 -38.028905,0.94599 c -2.459942,1.97825 -6.567843,3.8137 -11.31013,0 z"
       sodipodi:nodetypes="ccccccccccccccccccccccccccccccccccssccccc" /></g></svg>
